<svg
  width="196"
  height="45"
  viewBox="0 0 196 45"
  fill="none"
  xmlns="http://www.w3.org/2000/svg"
>
  <g clip-path="url(#clip0_323_217)">
    <path
      d="M5.53341 26.312C5.83465 26.312 5.95357 26.4577 5.91393 26.6801C5.87429 26.9423 5.76331 27.0853 5.53341 27.125C3.96772 27.0482 2.67554 26.4285 1.60532 25.2872C0.535108 24.1458 0 22.7529 0 21.1269C0 18.5529 1.56568 16.0081 4.64949 13.5109C7.73329 11.0137 12.0895 8.76008 17.6506 6.73689C23.2157 4.75343 29.8511 3.12746 37.5883 1.87754C45.2899 0.63026 53.8001 0 63.0634 0C63.4043 0 63.5549 0.145648 63.5232 0.405167C63.4836 0.696463 63.333 0.810334 63.0634 0.810334C53.9111 0.810334 45.5595 1.40087 37.9332 2.58195C30.3069 3.76302 23.7469 5.30424 18.2531 7.25858C12.7593 9.17584 8.49037 11.342 5.44224 13.7333C2.39411 16.1617 0.872027 18.59 0.872027 21.0978C0.872027 22.5013 1.33182 23.6718 2.20385 24.6675C3.12741 25.7241 4.22933 26.2749 5.53341 26.312ZM16.3584 24.9482C16.0572 25.025 15.8986 24.9482 15.8273 24.7258C15.7559 24.5033 15.7877 24.3577 16.0176 24.212C16.8182 23.7671 17.9241 23.3302 19.2559 22.925C20.5878 22.4801 22.1138 22.0432 23.8262 21.638C24.0957 19.4983 24.5079 17.3692 25.0074 15.2692C25.4989 13.1692 26.0815 11.2917 26.7197 9.67634C26.8703 9.38504 27.1002 9.30824 27.3301 9.45389C27.56 9.55982 27.671 9.78226 27.56 10.0444C26.9496 11.5936 26.3788 13.3546 25.9151 15.4149C25.4236 17.4381 25.043 19.4612 24.7339 21.4527C26.4462 21.0475 28.2418 20.6794 30.1484 20.3484C32.0113 20.02 33.9258 19.7181 35.8324 19.4665C37.739 19.2044 39.6098 18.9925 41.4371 18.8363C43.2724 18.6906 44.9451 18.5741 46.5108 18.545C46.812 18.5847 46.9309 18.7277 46.8913 18.9899C46.8516 19.252 46.7407 19.358 46.5108 19.358C44.9451 19.3977 43.2724 19.5036 41.3975 19.6493C39.5623 19.7949 37.6597 20.0174 35.7531 20.2795C33.8069 20.5417 31.9043 20.8303 29.9977 21.1614C28.0912 21.4897 26.2995 21.8578 24.6229 22.2656C24.5436 23.1475 24.4723 23.9605 24.393 24.7337C24.3137 25.507 24.3137 26.2432 24.3137 26.9025C24.3137 27.5328 24.3533 28.0836 24.393 28.5974C24.4326 29.0714 24.504 29.556 24.6229 29.9241C24.7021 30.2154 24.5832 30.369 24.3216 30.4378C24.0204 30.5146 23.8618 30.3981 23.7905 30.1757C23.6795 29.7705 23.6002 29.2938 23.5606 28.743C23.5209 28.1922 23.4813 27.5619 23.4813 26.9052C23.4813 26.2458 23.5209 25.5414 23.5606 24.8052C23.6002 24.069 23.6716 23.2958 23.7508 22.5225C22.1852 22.9674 20.7741 23.3646 19.5215 23.7698C18.154 24.0982 17.1234 24.5033 16.3584 24.9482Z"
      fill="currentColor"
    ></path>
    <path
      d="M82.2916 18.0974C82.2916 18.7277 82.1014 19.4612 81.7605 20.3033C81.38 21.1455 80.8488 21.9584 80.0878 22.8376C79.3268 23.6797 78.3754 24.5324 77.2696 25.3454C76.128 26.1584 74.8318 26.8549 73.2979 27.4454C73.5278 28.0757 73.9796 28.5868 74.6297 28.9946C75.2798 29.3997 76.1518 29.5851 77.226 29.5851C78.3001 29.5851 79.5527 29.3627 81.0034 28.8886C82.4581 28.4438 84.1308 27.7076 86.077 26.6827C86.2673 26.6059 86.4576 26.6827 86.5685 26.9052C86.6795 27.1276 86.6478 27.2733 86.4576 27.4189C84.4717 28.5232 82.7197 29.2965 81.1937 29.7705C79.6716 30.2154 78.3358 30.4669 77.222 30.4669C75.4264 30.4669 74.1342 30.0221 73.3335 29.1402C72.5329 28.2584 72.1523 27.1859 72.1523 25.8989C72.1523 24.5351 72.4219 23.2852 72.9134 22.067C73.4049 20.8489 74.0946 19.8214 74.8992 18.9025C75.6999 17.9836 76.5719 17.2871 77.4955 16.7336C78.4072 16.2199 79.3307 15.9207 80.1631 15.9207C80.8845 15.9207 81.4553 16.1431 81.8358 16.5509C82.1014 16.8872 82.2916 17.438 82.2916 18.0974ZM72.9491 25.83C72.9491 26.1981 72.9887 26.4603 73.0283 26.6033C74.483 26.0525 75.6959 25.3851 76.7265 24.649C77.7571 23.9128 78.6331 23.1395 79.3228 22.3663C80.0046 21.593 80.5476 20.8171 80.8885 20.0835C81.2294 19.3474 81.4196 18.68 81.4196 18.1292C81.4196 17.1706 80.9598 16.6966 80.0878 16.6966C79.3664 16.6966 78.5657 16.9587 77.7214 17.4327C76.8811 17.9068 76.1161 18.5741 75.3947 19.4162C74.6733 20.2583 74.1025 21.217 73.6388 22.3292C73.179 23.4388 72.9491 24.5801 72.9491 25.83Z"
      fill="currentColor"
    ></path>
    <path
      d="M85.7203 26.9027C85.7996 26.7199 85.9898 26.6405 86.2514 26.7199C86.513 26.7967 86.6319 26.9424 86.5923 27.1251C86.3624 27.9381 86.4417 28.5578 86.8222 29.0424C87.2424 29.5164 87.8131 29.7388 88.6178 29.7388C89.3788 29.7388 90.2627 29.662 91.2141 29.5164C92.1654 29.3707 93.1206 29.1483 94.0719 28.857C95.0232 28.5657 95.9785 28.2665 96.9298 27.8613C97.8811 27.4932 98.7254 27.088 99.5261 26.6431C99.756 26.4975 99.9859 26.5372 100.136 26.7199C100.287 26.9424 100.247 27.1648 100.025 27.3502C99.2248 27.8242 98.3131 28.2691 97.3182 28.6372C96.3273 29.0424 95.3324 29.3734 94.3415 29.6329C93.3505 29.9242 92.3556 30.1069 91.3647 30.2923C90.3737 30.4379 89.5017 30.5147 88.6574 30.5147C87.5159 30.5147 86.6319 30.1864 86.0612 29.519C85.4587 28.9258 85.3398 28.0361 85.7203 26.9027ZM88.6178 21.9692C88.3879 22.046 88.1976 21.9294 88.1263 21.6779C88.047 21.3866 88.1263 21.233 88.3562 21.1641L90.1518 20.759C90.4926 20.6822 90.6829 20.7987 90.7225 21.0503C90.8018 21.3415 90.6829 21.4951 90.3817 21.564L88.6178 21.9692Z"
      fill="currentColor"
    ></path>
    <path
      d="M99.415 26.9317C99.4943 26.6404 99.6846 26.5636 99.9462 26.6404C100.216 26.7172 100.327 26.8629 100.287 27.0456L99.9858 28.4782C100.786 27.9274 101.591 27.4428 102.352 27.0085C103.113 26.5636 103.724 26.3491 104.215 26.3491C104.746 26.3491 105.087 26.4948 105.289 26.794C105.48 27.0853 105.63 27.3845 105.749 27.6361C105.9 28.0042 106.169 28.3326 106.471 28.7007C106.811 29.0688 107.382 29.2515 108.266 29.2515C109.067 29.2515 110.212 29.0688 111.623 28.7007C113.035 28.3326 114.901 27.6361 117.189 26.6404C117.418 26.5636 117.609 26.6404 117.72 26.8629C117.831 27.0853 117.759 27.231 117.569 27.3766C115.163 28.412 113.217 29.1085 111.774 29.5163C110.331 29.9215 109.146 30.1068 108.306 30.1068C107.735 30.1068 107.275 30.03 106.891 29.9241C106.51 29.8182 106.209 29.6328 105.979 29.4104C105.749 29.1879 105.559 28.9655 105.448 28.7139C105.337 28.4915 105.218 28.2399 105.067 28.0175C104.877 27.4666 104.608 27.1753 104.267 27.1753C103.807 27.1753 103.276 27.3978 102.594 27.8056C101.944 28.2108 100.949 28.9099 99.6568 29.8659C99.5775 29.9427 99.4269 30.0115 99.2367 30.0115C99.0464 30.0512 98.9354 29.9347 99.0068 29.7493L99.415 26.9317Z"
      fill="currentColor"
    ></path>
    <path
      d="M131.553 26.6033C131.855 26.5265 132.013 26.6431 132.084 26.8946C132.164 27.1859 132.045 27.3395 131.815 27.4084C128.838 28.1446 125.83 28.9575 122.853 29.8367C122.853 31.084 122.512 32.5961 121.822 34.328C121.129 36.0599 120.217 37.715 119.036 39.3012C117.855 40.8875 116.439 42.2142 114.806 43.3476C113.161 44.4519 111.378 45.0027 109.392 45.0027C108.211 45.0027 107.176 44.5975 106.304 43.7554C105.432 42.9133 105.012 41.9547 105.012 40.7736C105.012 39.4098 105.472 38.1996 106.427 37.0953C107.378 35.991 108.603 34.9556 110.165 33.9996C111.731 33.041 113.522 32.1989 115.54 31.4256C117.565 30.6524 119.702 29.9162 121.906 29.2568C121.866 28.743 121.755 28.2982 121.525 27.9698C120.954 28.3379 120.383 28.6662 119.852 28.9655C119.281 29.2939 118.671 29.4395 117.989 29.4395C117.498 29.4395 117.078 29.3336 116.765 29.0714C116.424 28.849 116.273 28.4809 116.273 28.0757C116.273 27.5249 116.574 27.0112 117.185 26.5265C117.795 26.0419 118.477 25.8301 119.281 25.8301C119.741 25.8301 120.193 25.9069 120.653 26.0525C121.113 26.1982 121.525 26.4577 121.917 26.8655C122.338 26.6828 122.758 26.4974 123.182 26.3915C123.602 26.2856 124.054 26.2458 124.553 26.3147C124.894 26.3915 125.013 26.5769 124.973 26.8284C124.934 27.0906 124.783 27.1965 124.553 27.1568C123.832 27.0509 123.071 27.1965 122.338 27.562C122.528 27.8903 122.678 28.3749 122.758 28.9946C124.24 28.5497 125.695 28.1525 127.177 27.7473C128.656 27.3395 130.15 26.9317 131.553 26.6033ZM109.4 44.1685C110.581 44.1685 111.727 43.9461 112.797 43.472C113.871 42.998 114.894 42.3678 115.813 41.5945C116.725 40.8213 117.569 39.9394 118.291 38.9437C119.012 37.948 119.662 36.9602 120.237 35.9248C120.808 34.8894 121.228 33.8646 121.501 32.8662C121.771 31.8705 121.961 30.949 121.993 30.1068C119.856 30.7371 117.831 31.4336 115.889 32.1671C113.942 32.9033 112.23 33.7163 110.736 34.5955C109.253 35.4773 108.068 36.3962 107.188 37.4316C106.316 38.467 105.856 39.5713 105.856 40.7418C105.856 41.6607 106.197 42.4366 106.887 43.0934C107.612 43.8295 108.445 44.1685 109.4 44.1685ZM117.977 28.5974C118.548 28.5974 119.079 28.4517 119.622 28.1922C120.114 27.9009 120.653 27.6017 121.105 27.3104C120.804 27.0879 120.534 26.9052 120.233 26.7967C119.932 26.6907 119.622 26.651 119.281 26.651C118.711 26.651 118.207 26.7967 117.799 27.0959C117.379 27.3872 117.149 27.7262 117.149 28.0916C117.149 28.4412 117.407 28.5974 117.977 28.5974Z"
      fill="currentColor"
    ></path>
    <path
      d="M147.079 26.9316C147 27.1143 146.849 27.2229 146.588 27.1937C146.358 27.154 146.207 27.0481 146.207 26.8257C146.247 26.68 146.247 26.4973 146.128 26.2748C146.049 26.0921 145.858 25.9835 145.557 25.9835C145.216 25.9835 144.875 26.0603 144.527 26.2457C144.146 26.4284 143.805 26.6509 143.496 26.9422C143.155 27.2335 142.886 27.493 142.656 27.7843C142.426 28.0756 142.315 28.3748 142.315 28.6264C142.315 28.772 142.394 28.8488 142.545 28.8488C142.695 28.8091 142.925 28.7429 143.195 28.6264C143.464 28.4807 143.766 28.298 144.067 28.0756C144.408 27.8531 144.717 27.6016 145.058 27.3394C145.288 27.1567 145.518 27.0481 145.668 27.117C145.819 27.1567 146.009 27.2626 146.16 27.4082C146.73 27.9591 147.384 28.3272 148.066 28.5496C148.748 28.7323 149.398 28.8409 149.973 28.8409C151.003 28.8409 152.109 28.6185 153.33 28.1815C154.551 27.7446 155.657 27.2229 156.687 26.6323C157.028 26.5264 157.219 26.5555 157.337 26.778C157.448 27.0004 157.377 27.1832 157.187 27.3288C156.113 27.9591 154.939 28.5099 153.639 28.9442C152.347 29.3891 151.122 29.6406 150.02 29.6406C149.18 29.6406 148.415 29.5347 147.654 29.2725C146.893 29.0104 146.199 28.6132 145.518 28.0544C144.487 29.013 143.571 29.5241 142.731 29.6698C141.891 29.7757 141.467 29.4473 141.467 28.6741C141.467 28.306 141.578 27.9379 141.847 27.5327C142.117 27.1275 142.457 26.7595 142.878 26.3914C143.298 26.063 143.75 25.7611 144.209 25.5492C144.701 25.3268 145.161 25.1812 145.541 25.1812C146.191 25.1812 146.615 25.4036 146.806 25.8405C147.04 26.2748 147.111 26.6429 147.079 26.9316Z"
      fill="currentColor"
    ></path>
    <path
      d="M156.573 26.9027C156.652 26.7199 156.842 26.6405 157.104 26.7199C157.365 26.7967 157.484 26.9424 157.445 27.1251C157.215 27.9381 157.294 28.5578 157.674 29.0424C158.095 29.5164 158.665 29.7388 159.47 29.7388C160.231 29.7388 161.115 29.662 162.066 29.5164C163.018 29.3707 163.973 29.1483 164.924 28.857C165.875 28.5657 166.831 28.2665 167.782 27.8613C168.733 27.4932 169.578 27.088 170.378 26.6431C170.608 26.4975 170.838 26.5372 170.989 26.7199C171.139 26.9424 171.1 27.1648 170.878 27.3502C170.037 27.8242 169.165 28.2691 168.17 28.6372C167.18 29.0053 166.185 29.3734 165.194 29.6329C164.203 29.9242 163.208 30.1069 162.217 30.2923C161.226 30.4379 160.354 30.5147 159.51 30.5147C158.368 30.5147 157.484 30.1864 156.913 29.519C156.303 28.9258 156.224 28.0361 156.573 26.9027ZM159.47 21.9692C159.24 22.046 159.05 21.9294 158.979 21.6779C158.899 21.3866 158.979 21.233 159.208 21.1641L161.004 20.759C161.345 20.6822 161.535 20.7987 161.575 21.0503C161.654 21.3415 161.535 21.4951 161.234 21.564L159.47 21.9692Z"
      fill="currentColor"
    ></path>
    <path
      d="M188.1 26.6429C188.33 26.537 188.56 26.5661 188.671 26.7886C188.822 27.011 188.782 27.1937 188.592 27.3394C187.72 27.8902 186.729 28.4039 185.544 28.8885C184.362 29.3626 183.138 29.7704 181.885 30.1358C180.621 30.5039 179.328 30.7661 178.076 30.9779C176.811 31.1607 175.638 31.2692 174.528 31.2692C173.847 31.2692 173.236 31.0865 172.693 30.6787C172.15 30.2735 171.932 29.7969 171.932 29.246C171.932 28.9839 171.972 28.6555 172.083 28.2503C172.194 27.8822 172.313 27.5142 172.424 27.2149C171.512 27.3208 170.779 27.2546 170.208 26.9236C169.637 26.5952 169.336 26.0815 169.336 25.3082C169.336 25.1255 169.486 24.9799 169.756 24.9402C170.026 24.9004 170.176 25.0169 170.176 25.3082C170.176 25.7823 170.406 26.1212 170.898 26.304C171.389 26.4867 172.039 26.4867 172.883 26.2272C173.113 26.1504 173.304 26.2272 173.415 26.4496C173.526 26.672 173.526 26.8945 173.335 27.0799C173.145 27.3712 172.994 27.7101 172.875 28.1153C172.757 28.5205 172.725 28.8885 172.725 29.2196C172.725 29.5506 172.915 29.8101 173.256 30.0617C173.597 30.2841 174.017 30.4298 174.437 30.4298C175.511 30.4298 176.653 30.3238 177.866 30.1385C179.091 29.9557 180.304 29.6645 181.564 29.3255C182.789 28.9971 183.97 28.5893 185.072 28.1444C186.277 27.7075 187.228 27.1937 188.1 26.6429Z"
      fill="currentColor"
    ></path>
    <path
      d="M73.821 27.1541C71.6846 28.5179 68.5572 29.3997 68.5572 29.3997C67.2927 29.7281 66.0798 29.9505 64.859 30.1359C63.6342 30.3186 62.6115 30.3981 61.7712 30.3981C60.59 30.3981 59.6347 30.2921 58.9133 30.0697C58.1919 29.8472 58.0413 29.5189 58.0413 28.9654C58.0413 28.7827 58.2712 28.1922 58.4218 27.9697C58.5328 27.8241 60.9785 24.0319 67.3839 23.6638C67.3839 23.6638 67.9547 23.7035 68.2559 23.9922C68.906 24.6516 68.5968 26.2378 61.0894 28.9283C61.0894 28.9283 59.1829 29.8102 53.3918 30.2153L48.889 30.4378C47.7078 30.4378 47.133 30.5437 46.4116 30.3319C45.6902 30.1094 45.3375 29.7413 45.3375 29.1905C45.3375 29.0078 45.5674 28.6768 45.718 28.494C45.829 28.3484 48.7344 23.8598 54.8703 23.9657C54.8703 23.9657 55.4807 24.1114 55.7423 24.3709C56.3131 24.9217 56.4241 26.4311 48.5759 29.2673C48.5759 29.2673 40.3352 31.55 34.0487 30.9621C34.0487 30.9621 33.3669 30.4484 34.2389 30.4113C46.368 29.7148 46.479 29.1932 46.479 29.1932C52.6942 27.7234 54.8703 25.4381 54.8703 25.4381C55.1002 25.2156 55.1715 25.0329 55.0606 24.8873C54.8703 24.6251 54.4105 24.6251 54.4105 24.6251C47.7752 25.2554 46.1698 29.2594 46.1698 29.2594C46.1698 29.7042 47.2004 29.9187 49.2576 29.9187L52.1551 29.736C52.1551 29.736 56.5351 29.842 59.8924 28.7006C59.8924 28.7006 63.8205 27.636 67.372 25.1309C67.7129 24.9084 67.7525 24.7257 67.6415 24.5801C67.4909 24.3576 67.0708 24.3179 67.0708 24.3179C60.4354 24.9482 58.6795 28.9522 58.6795 28.9522C58.6795 29.3971 59.7101 29.6116 61.7672 29.6116C62.5679 29.6116 63.6025 29.7175 64.744 29.5348C65.9252 29.352 67.0311 29.0899 68.6721 28.6927C69.8969 28.3643 71.53 27.4454 72.6002 27.0376L73.821 27.1541Z"
      fill="currentColor"
    ></path>
    <path
      d="M29.0623 37.5403H32.5305V37.8289H30.9649V41.7402H30.624V37.8289H29.0623V37.5403Z"
      fill="currentColor"
    ></path>
    <path
      d="M39.166 37.5403V41.7402H38.8568V39.823H35.8483V41.7402H35.5352V37.5403H35.8483V39.5237H38.8568V37.5403H39.166Z"
      fill="currentColor"
    ></path>
    <path
      d="M42.6342 37.5403H45.6427V37.8289H42.975V39.5237H45.2225V39.823H42.975V41.4013H45.6427V41.7402H42.6342V37.5403Z"
      fill="currentColor"
    ></path>
    <path
      d="M52.9994 37.5403H54.9456C55.7859 37.5403 56.21 38.054 56.21 38.6048C56.21 39.0497 55.9405 39.4178 55.56 39.5635C56.0515 39.7091 56.4003 40.1143 56.4003 40.5989C56.4003 41.1894 55.9088 41.7032 55.1359 41.7032H52.9994V37.5403ZM53.3125 37.8289V39.4443H55.0249C55.556 39.4443 55.8969 39.0391 55.8969 38.6313C55.8969 38.1864 55.5956 37.8183 54.9456 37.8183H53.3125V37.8289ZM53.3125 39.7462V41.441H55.1081C55.7185 41.441 56.0594 41.0358 56.0594 40.5989C56.0594 40.162 55.7185 39.7568 55.1081 39.7568H53.3125V39.7462Z"
      fill="currentColor"
    ></path>
    <path
      d="M59.6071 37.5403H62.5719V37.8289H59.9479V39.5237H62.1914V39.823H59.9479V41.4013H62.5719V41.7402H59.6071V37.5403Z"
      fill="currentColor"
    ></path>
    <path
      d="M65.6994 40.6651C65.6994 41.1391 66.2305 41.5072 67.0708 41.5072C67.8715 41.5072 68.3353 41.1788 68.3353 40.7339C68.3353 40.1831 67.7248 39.9978 67.0034 39.7753C66.282 39.5529 65.4377 39.3013 65.4377 38.5572C65.4377 37.8978 66.0482 37.4529 66.9598 37.4529C67.9111 37.4529 68.6048 37.8978 68.6048 38.5174V38.5572H68.3035V38.5174C68.3035 38.0434 67.812 37.7045 67.0114 37.7045C66.2503 37.7045 65.8302 38.0328 65.8302 38.4777C65.8302 39.0285 66.4009 39.2139 67.1223 39.4363C67.8041 39.6588 68.7277 39.9104 68.7277 40.6836C68.7277 41.343 68.0776 41.7879 67.1223 41.7879C66.1314 41.7879 65.4496 41.343 65.4496 40.6836V40.6439H65.6994V40.6651Z"
      fill="currentColor"
    ></path>
    <path
      d="M71.3041 37.5403H74.7724V37.8289H73.2106V41.7402H72.8698V37.8289H71.3041V37.5403Z"
      fill="currentColor"
    ></path>
    <path
      d="M82.6721 41.7402L81.261 37.5403H81.6415L82.8623 41.2556L84.1149 37.5403H84.4677L85.7202 41.2556L86.9411 37.5403H87.3255L85.9105 41.7402H85.5696L84.2774 38.0514L83.013 41.7402H82.6721Z"
      fill="currentColor"
    ></path>
    <path
      d="M91.7055 37.5403L93.6913 41.7402H93.3505L92.8907 40.7816H90.1438L89.684 41.7402H89.3035L91.2893 37.5403H91.7055ZM90.3301 40.4824H92.7678L91.543 37.8687L90.3301 40.4824Z"
      fill="currentColor"
    ></path>
    <path
      d="M97.3499 39.8627L98.9513 37.5403H99.3318L97.5084 40.1911V41.7402H97.1993V40.1911L95.4037 37.5403H95.7842L97.3499 39.8627Z"
      fill="currentColor"
    ></path>
    <path
      d="M126.258 37.5403H129.726V37.8289H128.125V41.7402H127.823V37.8289H126.258V37.5403Z"
      fill="currentColor"
    ></path>
    <path
      d="M134.34 37.4607C135.604 37.4607 136.587 38.4564 136.587 39.6295C136.587 40.8477 135.557 41.7984 134.34 41.7984C133.075 41.7984 132.092 40.8397 132.092 39.6295C132.053 38.4193 133.087 37.4607 134.34 37.4607ZM134.34 41.4779C135.414 41.4779 136.286 40.6358 136.286 39.6004C136.286 38.565 135.414 37.7229 134.34 37.7229C133.266 37.7229 132.394 38.565 132.394 39.6004C132.394 40.665 133.277 41.4779 134.34 41.4779Z"
      fill="currentColor"
    ></path>
    <path
      d="M145.926 39.5608H147.832V41.7296H147.531V40.9934C147.19 41.4675 146.54 41.8064 145.886 41.8064C144.622 41.8064 143.639 40.8478 143.639 39.6376C143.639 38.4194 144.669 37.4688 145.886 37.4688C146.608 37.4688 147.301 37.7971 147.721 38.3506L147.452 38.5333C147.111 38.0884 146.54 37.7971 145.93 37.7971C144.856 37.7971 143.984 38.6392 143.984 39.6747C143.984 40.7101 144.856 41.5522 145.93 41.5522C146.612 41.5522 147.222 41.1841 147.575 40.6704V39.9342H145.969L145.926 39.5608Z"
      fill="currentColor"
    ></path>
    <path
      d="M151.079 37.5403H154.059V37.8289H151.38V39.5237H153.675V39.823H151.38V41.4013H154.059V41.7402H151.079V37.5403Z"
      fill="currentColor"
    ></path>
    <path
      d="M156.763 37.5403H160.231V37.8289H158.669V41.7402H158.328V37.8289H156.763V37.5403Z"
      fill="currentColor"
    ></path>
    <path
      d="M166.557 37.5403H170.025V37.8289H168.472V41.7402H168.162V37.8289H166.557V37.5403Z"
      fill="currentColor"
    ></path>
    <path
      d="M176.704 37.5403V41.7402H176.364V39.823H173.387V41.7402H173.046V37.5403H173.387V39.5237H176.364V37.5403H176.704Z"
      fill="currentColor"
    ></path>
    <path
      d="M180.173 37.5403H183.15V37.8289H180.482V39.5237H182.769V39.823H180.482V41.4013H183.15V41.7402H180.173V37.5403Z"
      fill="currentColor"
    ></path>
    <path
      d="M188.263 37.5403C189.214 37.5403 189.745 38.1705 189.745 38.9041C189.745 39.4946 189.404 40.0084 188.754 40.1911L189.896 41.7402H189.515L188.413 40.2705C188.374 40.2705 188.334 40.2705 188.263 40.2705H186.657V41.7402H186.317V37.5403H188.263ZM186.697 37.8289V39.9289H188.263C189.024 39.9289 189.444 39.4549 189.444 38.8644C189.444 38.3135 189.024 37.7998 188.263 37.7998L186.697 37.8289Z"
      fill="currentColor"
    ></path>
    <path
      d="M192.984 37.5403H196V37.8289H193.332V39.5237H195.58V39.823H193.332V41.4013H196V41.7402H192.984V37.5403Z"
      fill="currentColor"
    ></path>
  </g>
  <defs>
    <clipPath id="clip0_323_217">
      <rect width="196" height="45" fill="currentColor"></rect>
    </clipPath>
  </defs>
</svg>